<svg aria-hidden="true" style="position:absolute;width:0;height:0;overflow:hidden" xmlns="http://www.w3.org/2000/svg">
  <defs>
    <symbol id="icon-instagram" viewBox="0 0 32 32">
      <path d="M28.718 10.756a9.264 9.264 0 0 0-.596-3.145 6.547 6.547 0 0 0-3.743-3.737 9.42 9.42 0 0 0-3.108-.596c-1.367-.061-1.801-.078-5.273-.078s-3.916 0-5.274.078a9.418 9.418 0 0 0-3.106.596 6.541 6.541 0 0 0-3.743 3.737 9.288 9.288 0 0 0-.596 3.101c-.061 1.367-.08 1.8-.08 5.265s0 3.909.08 5.265a9.34 9.34 0 0 0 .596 3.104 6.545 6.545 0 0 0 3.744 3.735c.989.386 2.04.604 3.106.639 1.369.061 1.803.079 5.274.079s3.917 0 5.274-.079a9.357 9.357 0 0 0 3.108-.595 6.555 6.555 0 0 0 3.743-3.737 9.346 9.346 0 0 0 .596-3.104c.061-1.365.079-1.798.079-5.265-.003-3.466-.003-3.906-.082-5.264zM15.99 22.531c-3.631 0-6.572-2.936-6.572-6.561s2.941-6.561 6.572-6.561c3.628 0 6.572 2.936 6.572 6.561s-2.944 6.561-6.572 6.561zm6.834-11.835a1.53 1.53 0 1 1 0-3.06 1.53 1.53 0 1 1 0 3.06z"/>
      <path d="M15.992 19.976a4.004 4.004 0 1 0 0-8.009 4.004 4.004 0 0 0 0 8.009z"/>
    </symbol>
    <symbol id="icon-youTube" viewBox="0 0 41 32">
      <path d="M32.343 1.714c-1.943-.114-5.943-.229-12-.229h-.8c-5.829 0-9.714.114-11.657.343-2.629.229-4.457.914-5.486 1.829-.914.8-1.6 2.286-1.829 4.229-.114 1.257-.229 3.886-.229 7.886v.571c0 3.771.114 6.4.343 7.657.343 1.829.914 3.2 2.057 4 1.143.914 3.086 1.486 5.829 1.714 1.943.114 5.943.229 12 .229h.8c5.829 0 9.714-.114 11.657-.343 2.629-.229 4.457-.914 5.486-1.829.914-.8 1.6-2.286 1.829-4.229.114-1.257.229-3.886.229-7.886v-.571c0-3.771-.114-6.4-.343-7.657-.343-1.829-.914-3.2-2.057-4-1.143-.914-3.086-1.486-5.829-1.714zm-4.457 14.057-12.571 7.543V8.228l12.571 7.543z"/>
    </symbol>
    <symbol id="icon-facebook" viewBox="0 0 13 32">
      <path d="M11.093 1.92h1.28v4.8h-1.6c-.64 0-1.28 0-1.6.32-.32.32-.32.64-.32 1.387v1.707h3.52v4.053h-3.52v17.6h-5.44V14.08H.533v-4.053h2.88V8.64c0-2.347.32-4.053.96-4.8.96-1.387 2.88-2.027 5.76-2.027.32.107.64.107.96.107z"/>
    </symbol>
    <symbol id="icon-burger" viewBox="0 0 32 32">
      <path stroke-linejoin="round" stroke-linecap="round" stroke-width="2.4" d="M4 11.333h24M4 20.667h24"/>
    </symbol>
    <symbol id="icon-close" viewBox="0 0 32 32">
      <path fill="none" stroke="#fbfbfb" style="stroke:var(--color1, #fbfbfb)" stroke-linejoin="round" stroke-linecap="round" stroke-width="2.4" d="M24 8 8 24M8 8l16 16"/>
    </symbol>
  </defs>
</svg>

